<svg width="28" height="28" viewBox="0 0 28 28" fill="none" xmlns="http://www.w3.org/2000/svg">
<g filter="url(#filter0_d)">
<path d="M13.9987 0.208191C8.4775 0.208191 4 4.70319 4 10.2482C4 14.6832 6.865 18.4457 10.84 19.7744C11.34 19.8669 11.5225 19.5569 11.5225 19.2907C11.5225 19.0519 11.5138 18.4207 11.5087 17.5832C8.7275 18.1894 8.14 16.2369 8.14 16.2369C7.68625 15.0769 7.03 14.7682 7.03 14.7682C6.12125 14.1457 7.0975 14.1582 7.0975 14.1582C8.10125 14.2294 8.62875 15.1932 8.62875 15.1932C9.52125 16.7269 10.97 16.2844 11.54 16.0269C11.63 15.3782 11.8888 14.9357 12.175 14.6844C9.955 14.4307 7.62 13.5694 7.62 9.72319C7.62 8.62694 8.01 7.73069 8.65 7.02819C8.54625 6.77444 8.20375 5.75319 8.7475 4.37194C8.7475 4.37194 9.5875 4.10194 11.4975 5.40069C12.295 5.17819 13.15 5.06694 14.0013 5.06319C14.85 5.06819 15.7062 5.17819 16.505 5.40194C18.4137 4.10319 19.2525 4.37319 19.2525 4.37319C19.7975 5.75569 19.455 6.77569 19.3525 7.02944C19.9937 7.73194 20.38 8.62819 20.38 9.72444C20.38 13.5807 18.0425 14.4294 15.815 14.6782C16.1737 14.9882 16.4937 15.6007 16.4937 16.5369C16.4937 17.8794 16.4812 18.9619 16.4812 19.2907C16.4812 19.5594 16.6613 19.8719 17.1687 19.7732C21.1375 18.4432 24 14.6819 24 10.2482C24 4.70319 19.5225 0.208191 13.9987 0.208191Z" fill="black"/>
</g>
<defs>
<filter id="filter0_d" x="0" y="0" width="28" height="28" filterUnits="userSpaceOnUse" color-interpolation-filters="sRGB">
<feFlood flood-opacity="0" result="BackgroundImageFix"/>
<feColorMatrix in="SourceAlpha" type="matrix" values="0 0 0 0 0 0 0 0 0 0 0 0 0 0 0 0 0 0 127 0" result="hardAlpha"/>
<feOffset dy="4"/>
<feGaussianBlur stdDeviation="2"/>
<feComposite in2="hardAlpha" operator="out"/>
<feColorMatrix type="matrix" values="0 0 0 0 0 0 0 0 0 0 0 0 0 0 0 0 0 0 0.25 0"/>
<feBlend mode="normal" in2="BackgroundImageFix" result="effect1_dropShadow"/>
<feBlend mode="normal" in="SourceGraphic" in2="effect1_dropShadow" result="shape"/>
</filter>
</defs>
</svg>
