<svg width="20" height="20" viewBox="0 0 20 20" fill="none" xmlns="http://www.w3.org/2000/svg">
<path d="M9.99875 0.208191C4.4775 0.208191 0 4.70319 0 10.2482C0 14.6832 2.865 18.4457 6.84 19.7744C7.34 19.8669 7.5225 19.5569 7.5225 19.2907C7.5225 19.0519 7.51375 18.4207 7.50875 17.5832C4.7275 18.1894 4.14 16.2369 4.14 16.2369C3.68625 15.0769 3.03 14.7682 3.03 14.7682C2.12125 14.1457 3.0975 14.1582 3.0975 14.1582C4.10125 14.2294 4.62875 15.1932 4.62875 15.1932C5.52125 16.7269 6.97 16.2844 7.54 16.0269C7.63 15.3782 7.88875 14.9357 8.175 14.6844C5.955 14.4307 3.62 13.5694 3.62 9.72319C3.62 8.62694 4.01 7.73069 4.65 7.02819C4.54625 6.77444 4.20375 5.75319 4.7475 4.37194C4.7475 4.37194 5.5875 4.10194 7.4975 5.40069C8.295 5.17819 9.15 5.06694 10.0013 5.06319C10.85 5.06819 11.7062 5.17819 12.505 5.40194C14.4137 4.10319 15.2525 4.37319 15.2525 4.37319C15.7975 5.75569 15.455 6.77569 15.3525 7.02944C15.9937 7.73194 16.38 8.62819 16.38 9.72444C16.38 13.5807 14.0425 14.4294 11.815 14.6782C12.1737 14.9882 12.4937 15.6007 12.4937 16.5369C12.4937 17.8794 12.4812 18.9619 12.4812 19.2907C12.4812 19.5594 12.6613 19.8719 13.1687 19.7732C17.1375 18.4432 20 14.6819 20 10.2482C20 4.70319 15.5225 0.208191 9.99875 0.208191Z" fill="black"/>
</svg>
