<svg width="20" height="20" viewBox="0 0 20 20" fill="none" xmlns="http://www.w3.org/2000/svg">
<g clip-path="url(#clip0)">
<path d="M17.0699 2.92753C13.164 -0.977159 6.83225 -0.976221 2.92755 2.92968C-0.977164 6.83558 -0.976226 13.1673 2.92969 17.072C6.83561 20.9767 13.1674 20.9757 17.0721 17.0698C18.9473 15.194 20.0005 12.65 20 9.99761C19.9994 7.34563 18.9454 4.80247 17.0699 2.92753ZM15.1445 13.9297C15.1441 13.9301 15.1437 13.9306 15.1432 13.931V13.9277L14.6365 14.431C13.9812 15.0946 13.0269 15.3676 12.1198 15.151C11.2059 14.9064 10.3372 14.517 9.54644 13.9977C8.81182 13.5282 8.13103 12.9794 7.51641 12.361C6.95089 11.7996 6.44283 11.1832 5.9997 10.521C5.51501 9.80839 5.13137 9.03213 4.85968 8.21427C4.54823 7.25348 4.80632 6.19921 5.52637 5.49092L6.11971 4.89759C6.28467 4.73189 6.55272 4.7313 6.71839 4.89626C6.71882 4.89669 6.71928 4.89712 6.71971 4.89759L8.59306 6.77093C8.75877 6.9359 8.75936 7.20395 8.59439 7.36961C8.59396 7.37004 8.59353 7.37047 8.59306 7.37094L7.49305 8.47095C7.17742 8.78314 7.13773 9.27924 7.39972 9.63764C7.79758 10.1837 8.23786 10.6975 8.71642 11.1743C9.24999 11.7102 9.83004 12.1977 10.4498 12.631C10.8079 12.8808 11.2933 12.8387 11.6031 12.531L12.6664 11.451C12.8314 11.2853 13.0995 11.2847 13.2651 11.4497C13.2656 11.4501 13.266 11.4506 13.2665 11.451L15.1432 13.331C15.3089 13.496 15.3095 13.764 15.1445 13.9297Z" fill="black"/>
</g>
<defs>
<clipPath id="clip0">
<rect width="20" height="20" fill="white"/>
</clipPath>
</defs>
</svg>
